<svg id="Layer_1_1_" enable-background="new 0 0 64 64" height="512" viewBox="0 0 64 64" width="512" xmlns="http://www.w3.org/2000/svg"><path d="m49.473 57.002c.107-.858.638-1.796.841-2.515.482-1.712.75-3.476 1.254-5.182 1.767-5.985 2.794-12.232 2.46-18.485-.326-6.077-1.585-12.944-3.028-18.82v-9h-36.964v9c-2.049 8.814-4.767 19.611-3.891 28.732.315 3.279.934 6.522 1.686 9.727.37 1.574.772 3.139 1.189 4.701.333 1.25.877 2.461.998 3.76.02.21.115 2.55.018 2.574 0 0 8.9-2.225 8.9-2.225.986-.247 2.007-.326 3.02-.233l27.044 2.458s-3.113-3.113-3.116-3.116c-.389-.389-.474-.869-.411-1.376z" fill="#9c5f20"/><circle cx="32" cy="35" fill="#fff" r="19"/><path d="m44.424 26.125c-1.205-1.468-2.732-.383-2.732-.383s.407-1.736-.692-2.531c-1-.723-3.004.643-3.004.643s-1.567-1.045-2.612-.723c-1.045.321.17 2.994.17 2.994l4.446 6.051 2.705.417c2.138-.784.594-3.345.594-3.345s2.157-1.866 1.125-3.123z" fill="#c12929"/><path d="m38.871 35.159c-.264 0-.85 0-.85 0-2.018 0-3.776 2.553-3.904 4.679-.002.36.004.593.004.593s5.784-1.278 4.88-5.23c-.001-.001-.048-.017-.13-.042z" fill="#c12929"/><path d="m41 32.249c-.585-.054-2 2.951-2 2.951l6 1.042s.904-3.539-4-3.993z" fill="#edbf36"/><path d="m25.695 31.485c-.455 1.155-.661 2.402-1.187 3.526-1.389 2.967-5.039 6.24-8.931 8.514 3.291 5.66 9.405 9.475 16.423 9.475 1.105 0 2.181-.114 3.234-.295.291-3.192-.835-9.391-1.114-12.275-.214-2.209 1.691-5.271 3.901-5.271h.979l2-2.91c0-8.001-12.308-8.375-15.305-.764z" fill="#f4c69d"/><path d="m49.473 57.002c.013-.104.048-.211.072-.316l-23.588-2.144c-1.013-.092-2.033-.013-3.02.233 0 0-3.664.916-6.291 1.573-1.28.32-2.517-.6-2.627-1.915 0-.003 0-.005-.001-.007-.121-1.299-.665-2.511-.998-3.76-.416-1.562-.819-3.127-1.189-4.701-.753-3.205-1.372-6.447-1.686-9.727-.047-.491-.079-.99-.106-1.49-.096 2.046-.079 4.054.106 5.984.315 3.279.934 6.522 1.686 9.727.37 1.574.773 3.139 1.189 4.701.333 1.25.877 2.461.998 3.76.02.21.115 2.55.018 2.574 0 0 8.9-2.225 8.9-2.225.986-.247 2.007-.326 3.02-.233l27.044 2.458s-3.113-3.113-3.116-3.116c-.389-.389-.474-.869-.411-1.376z" fill="#8c551d"/><g fill="#fff"><path d="m18 11h-1c-.552 0-1-.448-1-1 0-.552.448-1 1-1h1c.552 0 1 .448 1 1 0 .552-.448 1-1 1z"/><path d="m23 11h-1c-.552 0-1-.448-1-1 0-.552.448-1 1-1h1c.552 0 1 .448 1 1 0 .552-.448 1-1 1z"/><path d="m28 11h-1c-.552 0-1-.448-1-1 0-.552.448-1 1-1h1c.552 0 1 .448 1 1 0 .552-.448 1-1 1z"/><path d="m33 11h-1c-.552 0-1-.448-1-1 0-.552.448-1 1-1h1c.552 0 1 .448 1 1 0 .552-.448 1-1 1z"/><path d="m38 11h-1c-.552 0-1-.448-1-1 0-.552.448-1 1-1h1c.552 0 1 .448 1 1 0 .552-.448 1-1 1z"/><path d="m43 11h-1c-.552 0-1-.448-1-1 0-.552.448-1 1-1h1c.552 0 1 .448 1 1 0 .552-.448 1-1 1z"/><path d="m48 11h-1c-.552 0-1-.448-1-1 0-.552.448-1 1-1h1c.552 0 1 .448 1 1 0 .552-.448 1-1 1z"/></g><circle cx="35.717" cy="30.53" r="1.282"/></svg>